<svg width="139" height="26" viewBox="0 0 139 26" fill="none" xmlns="http://www.w3.org/2000/svg">
<path d="M0 10.0803C0 4.55611 4.47824 0.0778809 10.0024 0.0778809H41.686C47.2102 0.0778809 51.6884 4.55612 51.6884 10.0803V25.9221H10.0024C4.47824 25.9221 0 21.4439 0 15.9197V10.0803Z" fill="#316CDE"/>
<path d="M4.30737 13.0001C4.30737 8.00439 8.35717 3.95459 13.3528 3.95459H38.3356C43.3313 3.95459 47.3811 8.00439 47.3811 13.0001C47.3811 17.9957 43.3313 22.0455 38.3356 22.0455H13.3528C8.35716 22.0455 4.30737 17.9957 4.30737 13.0001Z" fill="white"/>
<circle cx="14.6449" cy="13.0001" r="5.16884" fill="#111517"/>
<path d="M14.4295 9.5542C14.0053 9.5542 13.5852 9.63776 13.1932 9.80011C12.8013 9.96246 12.4452 10.2004 12.1452 10.5004C11.8452 10.8004 11.6072 11.1565 11.4449 11.5485C11.2825 11.9404 11.199 12.3605 11.199 12.7847L14.4295 12.7847V9.5542Z" fill="#A89F9E"/>
<circle cx="37.0434" cy="13.0001" r="5.16884" fill="#111517"/>
<path d="M36.8282 9.5542C36.4039 9.5542 35.9839 9.63776 35.5919 9.80011C35.2 9.96246 34.8438 10.2004 34.5439 10.5004C34.2439 10.8004 34.0059 11.1565 33.8436 11.5485C33.6812 11.9404 33.5977 12.3605 33.5977 12.7847L36.8282 12.7847V9.5542Z" fill="#A89F9E"/>
<g clip-path="url(#clip0_121_695)">
<path d="M70.7206 17.0037H62.6892L61.7389 19.8531H58.6736L63.6798 6.01514H69.8104L74.7362 19.8531H71.5906L70.7206 17.0037ZM69.9442 14.6292L66.7049 6.41088L63.4924 14.6292H69.9442Z" fill="white"/>
<path d="M76.4763 6.01514H79.381V19.8531H76.4763V6.01514Z" fill="white"/>
<path d="M87.7334 19.985H86.7027C85.2117 19.985 83.7818 19.4013 82.7274 18.3622C81.6731 17.3232 81.0808 15.914 81.0808 14.4445V13.8245H83.9855V14.4577C83.9815 15.2223 84.2797 15.9583 84.8169 16.5098C85.3541 17.0614 86.0881 17.3852 86.8634 17.4126H87.5594C88.337 17.3886 89.0744 17.0663 89.6145 16.5143C90.1545 15.9624 90.4546 15.2245 90.4507 14.4577V6.21301C90.4634 6.14764 90.4634 6.0805 90.4507 6.01514H93.3286L93.3955 6.08109V14.4445C93.3955 15.1755 93.2488 15.8992 92.9638 16.574C92.6787 17.2487 92.261 17.8613 91.7347 18.3763C91.2084 18.8913 90.5839 19.2986 89.8972 19.5747C89.2105 19.8508 88.4751 19.9902 87.7334 19.985Z" fill="white"/>
<path d="M105.229 9.16772H106.112V19.8133H103.274L103.997 15.935L103.448 17.4388C103.3 17.8675 103.064 18.2618 102.756 18.5975C102.448 18.9332 102.073 19.2033 101.655 19.3912H101.507C100.87 19.6297 100.194 19.7505 99.5129 19.7473C98.7901 19.7514 98.0713 19.64 97.3846 19.4176C96.7813 19.2189 96.2382 18.8742 95.8051 18.415C95.4835 18.0874 95.265 17.6751 95.176 17.2278C95.0776 16.5729 95.0373 15.9108 95.0555 15.249V9.16772H98.0405V15.5392C98.111 16.1245 98.4048 16.6614 98.8621 17.0411C99.3195 17.4208 99.9063 17.6148 100.503 17.5839C100.868 17.6054 101.232 17.5533 101.575 17.4308C101.918 17.3083 102.232 17.118 102.498 16.8716C102.974 16.3076 103.213 15.5856 103.167 14.8533V9.16772H105.229Z" fill="white"/>
<path d="M114.384 9.16775C114.661 9.14721 114.938 9.14721 115.214 9.16775V12.1095C114.977 11.873 114.693 11.6877 114.38 11.5651C114.066 11.4424 113.731 11.3853 113.394 11.3971C113.031 11.3676 112.666 11.4159 112.324 11.5389C111.982 11.6619 111.671 11.8566 111.413 12.1095C110.925 12.668 110.68 13.3928 110.73 14.1278V19.8133H107.799V9.16775H110.636L109.9 13.0461L110.449 11.5422C110.594 11.116 110.826 10.7231 111.129 10.3876C111.433 10.052 111.803 9.78062 112.216 9.58988H112.363C113.004 9.32674 113.69 9.18359 114.384 9.16775Z" fill="white"/>
<path d="M119.082 6.8728V8.07323H116.405V6.8728H119.082ZM116.405 9.15494H119.082V19.8533H116.405V9.15494Z" fill="white"/>
<path d="M130.955 16.4365C131.879 20.4731 120.943 21.4361 120.247 16.7267H122.924C123.794 18.1118 127.81 18.3097 127.81 16.8586C127.81 14.748 121.117 16.0935 120.541 12.6109C119.845 8.33686 130.045 7.82239 130.58 12.6109H127.903C127.703 11.0939 123.647 10.6718 123.647 12.1756C123.647 13.6794 130.219 13.2309 130.955 16.4365Z" fill="white"/>
<path d="M137.568 17.65C137.827 17.6654 138.086 17.6289 138.33 17.5427C138.573 17.4566 138.797 17.3225 138.987 17.1487V19.0219C138.697 19.2548 138.372 19.4417 138.023 19.5759C137.591 19.716 137.139 19.783 136.684 19.7738C136.083 19.8375 135.476 19.7204 134.943 19.4379C134.41 19.1554 133.977 18.7206 133.7 18.1908C133.371 17.3781 133.225 16.5052 133.271 15.6316V10.421H131.933V9.49758H133.271V7.4397H135.948V9.49758H137.555V10.421H135.948V15.6976C135.913 16.1478 135.986 16.6 136.162 17.0168C136.302 17.2525 136.511 17.44 136.763 17.5534C137.015 17.6668 137.296 17.7006 137.568 17.65Z" fill="white"/>
</g>
<defs>
<clipPath id="clip0_121_695">
<rect width="80.3266" height="13.9698" fill="white" transform="translate(58.6736 6.01514)"/>
</clipPath>
</defs>
</svg>
