<svg width="52" height="53" viewBox="0 0 52 53" fill="none" xmlns="http://www.w3.org/2000/svg">
<rect x="0.00012207" y="0.5" width="52" height="52" rx="26" fill="#367CFF"/>
<path d="M33.8563 18.6484C33.4397 18.2226 32.823 18.0651 32.248 18.2318L18.8397 22.1059C18.233 22.2743 17.803 22.7551 17.6872 23.3651C17.5688 23.9868 17.9822 24.7768 18.5222 25.1068L22.7147 27.6668C23.1447 27.9301 23.6997 27.8643 24.0555 27.5076L28.8563 22.7068C29.098 22.4559 29.498 22.4559 29.7397 22.7068C29.9813 22.9476 29.9813 23.3401 29.7397 23.5901L24.9305 28.3909C24.5738 28.7476 24.5072 29.3009 24.7697 29.7318L27.3313 33.9401C27.6313 34.4393 28.148 34.7234 28.7147 34.7234C28.7813 34.7234 28.8563 34.7234 28.923 34.7143C29.573 34.6318 30.0897 34.1893 30.2813 33.5643L34.2563 20.2568C34.4313 19.6901 34.273 19.0734 33.8563 18.6484Z" fill="white"/>
<path opacity="0.4" fill-rule="evenodd" clip-rule="evenodd" d="M18.5089 30.5062C18.3489 30.5062 18.1889 30.4453 18.0672 30.3228C17.8231 30.0787 17.8231 29.6837 18.0672 29.4395L19.2047 28.3012C19.4489 28.0578 19.8447 28.0578 20.0889 28.3012C20.3322 28.5453 20.3322 28.9412 20.0889 29.1853L18.9506 30.3228C18.8289 30.4453 18.6689 30.5062 18.5089 30.5062ZM21.6432 31.4998C21.4832 31.4998 21.3232 31.439 21.2016 31.3165C20.9574 31.0723 20.9574 30.6773 21.2016 30.4332L22.3391 29.2948C22.5832 29.0515 22.9791 29.0515 23.2232 29.2948C23.4666 29.539 23.4666 29.9348 23.2232 30.179L22.0849 31.3165C21.9632 31.439 21.8032 31.4998 21.6432 31.4998ZM21.8546 34.4732C21.9763 34.5957 22.1363 34.6565 22.2963 34.6565C22.4563 34.6565 22.6163 34.5957 22.738 34.4732L23.8763 33.3357C24.1196 33.0915 24.1196 32.6957 23.8763 32.4515C23.6321 32.2082 23.2363 32.2082 22.9921 32.4515L21.8546 33.5898C21.6105 33.834 21.6105 34.229 21.8546 34.4732Z" fill="white"/>
</svg>
