<svg width="20" height="20" viewBox="0 0 20 20" fill="none" xmlns="http://www.w3.org/2000/svg">
<path d="M12.835 17.5V11.695H14.7792L15.07 9.43833H12.835V7.99833C12.835 7.345 13.0167 6.89917 13.9533 6.89917H15.1483V4.88083C14.5698 4.81945 13.9884 4.78969 13.4067 4.79167C11.6842 4.79167 10.505 5.84333 10.505 7.775V9.43833H8.55667V11.695H10.505V17.5H3.33333C3.11232 17.5 2.90036 17.4122 2.74408 17.2559C2.5878 17.0996 2.5 16.8877 2.5 16.6667V3.33333C2.5 3.11232 2.5878 2.90036 2.74408 2.74408C2.90036 2.5878 3.11232 2.5 3.33333 2.5H16.6667C16.8877 2.5 17.0996 2.5878 17.2559 2.74408C17.4122 2.90036 17.5 3.11232 17.5 3.33333V16.6667C17.5 16.8877 17.4122 17.0996 17.2559 17.2559C17.0996 17.4122 16.8877 17.5 16.6667 17.5H12.835Z" fill="#0A0A0A"/>
</svg>
