<svg width="20" height="20" viewBox="0 0 20 20" fill="none" xmlns="http://www.w3.org/2000/svg">
<path d="M9.99739 1.66699C12.2616 1.66699 12.5441 1.67533 13.4324 1.71699C14.3199 1.75866 14.9241 1.89783 15.4557 2.10449C16.0057 2.31616 16.4691 2.60283 16.9324 3.06533C17.3561 3.48191 17.684 3.98582 17.8932 4.54199C18.0991 5.07282 18.2391 5.67782 18.2807 6.56532C18.3199 7.45366 18.3307 7.73616 18.3307 10.0003C18.3307 12.2645 18.3224 12.547 18.2807 13.4353C18.2391 14.3228 18.0991 14.927 17.8932 15.4587C17.6846 16.0151 17.3567 16.5192 16.9324 16.9353C16.5157 17.3589 16.0118 17.6868 15.4557 17.8962C14.9249 18.102 14.3199 18.242 13.4324 18.2837C12.5441 18.3228 12.2616 18.3337 9.99739 18.3337C7.73323 18.3337 7.45073 18.3253 6.56239 18.2837C5.67489 18.242 5.07073 18.102 4.53906 17.8962C3.98267 17.6874 3.47867 17.3594 3.0624 16.9353C2.63857 16.5188 2.31067 16.0149 2.10156 15.4587C1.8949 14.9278 1.75573 14.3228 1.71406 13.4353C1.6749 12.547 1.66406 12.2645 1.66406 10.0003C1.66406 7.73616 1.6724 7.45366 1.71406 6.56532C1.75573 5.67699 1.8949 5.07366 2.10156 4.54199C2.31009 3.98547 2.63807 3.48143 3.0624 3.06533C3.47879 2.64135 3.98275 2.31343 4.53906 2.10449C5.07073 1.89783 5.67406 1.75866 6.56239 1.71699C7.45073 1.67783 7.73323 1.66699 9.99739 1.66699ZM9.99739 5.83366C8.89233 5.83366 7.83252 6.27264 7.05112 7.05405C6.26972 7.83545 5.83073 8.89526 5.83073 10.0003C5.83073 11.1054 6.26972 12.1652 7.05112 12.9466C7.83252 13.728 8.89233 14.167 9.99739 14.167C11.1025 14.167 12.1623 13.728 12.9437 12.9466C13.7251 12.1652 14.1641 11.1054 14.1641 10.0003C14.1641 8.89526 13.7251 7.83545 12.9437 7.05405C12.1623 6.27264 11.1025 5.83366 9.99739 5.83366ZM15.4141 5.62532C15.4141 5.34906 15.3043 5.08411 15.109 4.88876C14.9136 4.69341 14.6487 4.58366 14.3724 4.58366C14.0961 4.58366 13.8312 4.69341 13.6358 4.88876C13.4405 5.08411 13.3307 5.34906 13.3307 5.62532C13.3307 5.90159 13.4405 6.16654 13.6358 6.36189C13.8312 6.55724 14.0961 6.66699 14.3724 6.66699C14.6487 6.66699 14.9136 6.55724 15.109 6.36189C15.3043 6.16654 15.4141 5.90159 15.4141 5.62532ZM9.99739 7.50032C10.6604 7.50032 11.2963 7.76372 11.7652 8.23256C12.234 8.7014 12.4974 9.33728 12.4974 10.0003C12.4974 10.6634 12.234 11.2993 11.7652 11.7681C11.2963 12.2369 10.6604 12.5003 9.99739 12.5003C9.33435 12.5003 8.69847 12.2369 8.22963 11.7681C7.76079 11.2993 7.4974 10.6634 7.4974 10.0003C7.4974 9.33728 7.76079 8.7014 8.22963 8.23256C8.69847 7.76372 9.33435 7.50032 9.99739 7.50032Z" fill="#0A0A0A"/>
</svg>
