<svg width="20" height="20" viewBox="0 0 20 20" fill="none" xmlns="http://www.w3.org/2000/svg">
<path d="M13.3333 6.87147V12.917C13.3333 15.9086 10.9082 18.3337 7.91667 18.3337C4.92512 18.3337 2.5 15.9086 2.5 12.917C2.5 9.92541 4.92512 7.50032 7.91667 7.50032C8.34692 7.50032 8.76542 7.55048 9.16667 7.64527V10.281C8.78783 10.101 8.364 10.0003 7.91667 10.0003C6.30583 10.0003 5 11.3062 5 12.917C5 14.5278 6.30583 15.8337 7.91667 15.8337C9.5275 15.8337 10.8333 14.5278 10.8333 12.917V1.66699H13.3333C13.3333 3.96818 15.1988 5.83366 17.5 5.83366V8.33366C15.9234 8.33366 14.4747 7.78639 13.3333 6.87147Z" fill="#0A0A0A"/>
</svg>
