<svg width="304" height="152" viewBox="0 0 304 152" fill="none" xmlns="http://www.w3.org/2000/svg">
<path d="M0 58.8282C0 26.3383 26.3383 0 58.8282 0H245.172C277.662 0 304 26.3383 304 58.8282V152H58.8282C26.3383 152 0 125.662 0 93.1718V58.8282Z" fill="#316CDE"/>
<path d="M25.3332 76C25.3332 46.6185 49.1516 22.8 78.5332 22.8H225.467C254.848 22.8 278.667 46.6185 278.667 76C278.667 105.382 254.848 129.2 225.467 129.2H78.5331C49.1516 129.2 25.3332 105.382 25.3332 76Z" fill="white"/>
<circle cx="86.1333" cy="76" r="30.4" fill="#111517"/>
<path d="M84.8668 55.7333C82.3717 55.7333 79.901 56.2248 77.5958 57.1796C75.2906 58.1344 73.1961 59.534 71.4318 61.2983C69.6674 63.0626 68.2679 65.1571 67.3131 67.4623C66.3582 69.7675 65.8668 72.2382 65.8668 74.7333L84.8668 74.7333V55.7333Z" fill="#A89F9E"/>
<circle cx="217.867" cy="76" r="30.4" fill="#111517"/>
<path d="M216.6 55.7333C214.105 55.7333 211.634 56.2248 209.329 57.1796C207.024 58.1344 204.929 59.534 203.165 61.2983C201.401 63.0626 200.001 65.1571 199.046 67.4623C198.091 69.7675 197.6 72.2382 197.6 74.7333L216.6 74.7333V55.7333Z" fill="#A89F9E"/>
</svg>
