<svg width="1034" height="1002" viewBox="0 0 1034 1002" fill="none" xmlns="http://www.w3.org/2000/svg">
<g filter="url(#filter0_i_121_944)">
<rect x="2.72949" y="0.496094" width="1028.54" height="636.15" rx="46.0763" fill="#E6E6E6"/>
</g>
<rect x="3.10107" y="0.867677" width="1027.8" height="635.406" rx="45.7047" stroke="url(#paint0_linear_121_944)" stroke-width="0.743166"/>
<rect x="5.70215" y="3.46899" width="1022.6" height="630.204" rx="43.1036" fill="black"/>
<g filter="url(#filter1_i_121_944)">
<path d="M0.5 102.756C0.5 102.34 0.5 102.131 0.581 101.972C0.65225 101.833 0.76594 101.719 0.905775 101.648C1.06475 101.567 1.27285 101.567 1.68906 101.567H2.7295V123.862H1.68906C1.27285 123.862 1.06475 123.862 0.905775 123.781C0.76594 123.709 0.65225 123.596 0.581 123.456C0.5 123.297 0.5 123.089 0.5 122.673V102.756Z" fill="#CCCCCC"/>
</g>
<g filter="url(#filter2_i_121_944)">
<path d="M0.5 148.832C0.5 148.416 0.5 148.208 0.581 148.049C0.65225 147.909 0.76594 147.795 0.905775 147.724C1.06475 147.643 1.27285 147.643 1.68906 147.643H2.7295V193.719H1.68906C1.27285 193.719 1.06475 193.719 0.905775 193.638C0.76594 193.567 0.65225 193.453 0.581 193.313C0.5 193.154 0.5 192.946 0.5 192.53V148.832Z" fill="#CCCCCC"/>
</g>
<g filter="url(#filter3_i_121_944)">
<path d="M0.5 208.285C0.5 207.869 0.5 207.661 0.581 207.502C0.65225 207.362 0.76594 207.248 0.905775 207.177C1.06475 207.096 1.27285 207.096 1.68906 207.096H2.7295V253.172H1.68906C1.27285 253.172 1.06475 253.172 0.905775 253.091C0.76594 253.02 0.65225 252.907 0.581 252.767C0.5 252.608 0.5 252.4 0.5 251.983V208.285Z" fill="#CCCCCC"/>
</g>
<g filter="url(#filter4_i_121_944)">
<path d="M1031.27 163.993H1032.31C1032.73 163.993 1032.93 163.993 1033.09 164.074C1033.23 164.145 1033.35 164.259 1033.42 164.398C1033.5 164.557 1033.5 164.766 1033.5 165.182V237.12C1033.5 237.536 1033.5 237.744 1033.42 237.903C1033.35 238.043 1033.23 238.157 1033.09 238.228C1032.93 238.309 1032.73 238.309 1032.31 238.309H1031.27V163.993Z" fill="#CCCCCC"/>
</g>
<rect x="19.0793" y="16.8457" width="995.841" height="603.45" rx="29.7266" fill="black"/>
<g filter="url(#filter5_ddddd_121_944)">
<g filter="url(#filter6_i_121_944)">
<rect x="614.355" y="88.8652" width="311.387" height="636.15" rx="46.0763" fill="#E6E6E6"/>
</g>
<rect x="614.726" y="89.2368" width="310.643" height="635.406" rx="45.7047" stroke="url(#paint1_linear_121_944)" stroke-width="0.743166"/>
<rect x="617.327" y="91.8379" width="305.441" height="630.204" rx="43.1036" fill="black"/>
<g filter="url(#filter7_i_121_944)">
<path d="M612.125 191.125C612.125 190.709 612.125 190.501 612.206 190.342C612.277 190.202 612.391 190.088 612.531 190.017C612.69 189.936 612.898 189.936 613.314 189.936H614.355V212.231H613.314C612.898 212.231 612.69 212.231 612.531 212.15C612.391 212.079 612.277 211.965 612.206 211.825C612.125 211.666 612.125 211.458 612.125 211.042V191.125Z" fill="#CCCCCC"/>
</g>
<g filter="url(#filter8_i_121_944)">
<path d="M612.125 237.201C612.125 236.785 612.125 236.577 612.206 236.418C612.277 236.278 612.391 236.164 612.531 236.093C612.69 236.012 612.898 236.012 613.314 236.012H614.355V282.088H613.314C612.898 282.088 612.69 282.088 612.531 282.007C612.391 281.936 612.277 281.822 612.206 281.682C612.125 281.523 612.125 281.315 612.125 280.899V237.201Z" fill="#CCCCCC"/>
</g>
<g filter="url(#filter9_i_121_944)">
<path d="M612.125 296.654C612.125 296.238 612.125 296.03 612.206 295.871C612.277 295.731 612.391 295.618 612.531 295.546C612.69 295.465 612.898 295.465 613.314 295.465H614.355V341.542H613.314C612.898 341.542 612.69 341.542 612.531 341.461C612.391 341.389 612.277 341.276 612.206 341.136C612.125 340.977 612.125 340.769 612.125 340.353V296.654Z" fill="#CCCCCC"/>
</g>
<g filter="url(#filter10_i_121_944)">
<path d="M925.741 252.362H926.781C927.198 252.362 927.406 252.362 927.565 252.443C927.705 252.514 927.818 252.628 927.889 252.767C927.97 252.926 927.97 253.134 927.97 253.551V325.489C927.97 325.905 927.97 326.113 927.889 326.272C927.818 326.412 927.705 326.526 927.565 326.597C927.406 326.678 927.198 326.678 926.781 326.678H925.741V252.362Z" fill="#CCCCCC"/>
</g>
</g>
<defs>
<filter id="filter0_i_121_944" x="2.72949" y="0.496094" width="1028.54" height="636.149" filterUnits="userSpaceOnUse" color-interpolation-filters="sRGB">
<feFlood flood-opacity="0" result="BackgroundImageFix"/>
<feBlend mode="normal" in="SourceGraphic" in2="BackgroundImageFix" result="shape"/>
<feColorMatrix in="SourceAlpha" type="matrix" values="0 0 0 0 0 0 0 0 0 0 0 0 0 0 0 0 0 0 127 0" result="hardAlpha"/>
<feOffset/>
<feGaussianBlur stdDeviation="2.97266"/>
<feComposite in2="hardAlpha" operator="arithmetic" k2="-1" k3="1"/>
<feColorMatrix type="matrix" values="0 0 0 0 0 0 0 0 0 0 0 0 0 0 0 0 0 0 0.3 0"/>
<feBlend mode="normal" in2="shape" result="effect1_innerShadow_121_944"/>
</filter>
<filter id="filter1_i_121_944" x="0.5" y="101.567" width="2.97266" height="22.2949" filterUnits="userSpaceOnUse" color-interpolation-filters="sRGB">
<feFlood flood-opacity="0" result="BackgroundImageFix"/>
<feBlend mode="normal" in="SourceGraphic" in2="BackgroundImageFix" result="shape"/>
<feColorMatrix in="SourceAlpha" type="matrix" values="0 0 0 0 0 0 0 0 0 0 0 0 0 0 0 0 0 0 127 0" result="hardAlpha"/>
<feOffset dx="0.743166"/>
<feGaussianBlur stdDeviation="0.743166"/>
<feComposite in2="hardAlpha" operator="arithmetic" k2="-1" k3="1"/>
<feColorMatrix type="matrix" values="0 0 0 0 1 0 0 0 0 1 0 0 0 0 1 0 0 0 1 0"/>
<feBlend mode="normal" in2="shape" result="effect1_innerShadow_121_944"/>
</filter>
<filter id="filter2_i_121_944" x="0.5" y="147.643" width="2.97266" height="46.0762" filterUnits="userSpaceOnUse" color-interpolation-filters="sRGB">
<feFlood flood-opacity="0" result="BackgroundImageFix"/>
<feBlend mode="normal" in="SourceGraphic" in2="BackgroundImageFix" result="shape"/>
<feColorMatrix in="SourceAlpha" type="matrix" values="0 0 0 0 0 0 0 0 0 0 0 0 0 0 0 0 0 0 127 0" result="hardAlpha"/>
<feOffset dx="0.743166"/>
<feGaussianBlur stdDeviation="0.743166"/>
<feComposite in2="hardAlpha" operator="arithmetic" k2="-1" k3="1"/>
<feColorMatrix type="matrix" values="0 0 0 0 1 0 0 0 0 1 0 0 0 0 1 0 0 0 1 0"/>
<feBlend mode="normal" in2="shape" result="effect1_innerShadow_121_944"/>
</filter>
<filter id="filter3_i_121_944" x="0.5" y="207.096" width="2.97266" height="46.0762" filterUnits="userSpaceOnUse" color-interpolation-filters="sRGB">
<feFlood flood-opacity="0" result="BackgroundImageFix"/>
<feBlend mode="normal" in="SourceGraphic" in2="BackgroundImageFix" result="shape"/>
<feColorMatrix in="SourceAlpha" type="matrix" values="0 0 0 0 0 0 0 0 0 0 0 0 0 0 0 0 0 0 127 0" result="hardAlpha"/>
<feOffset dx="0.743166"/>
<feGaussianBlur stdDeviation="0.743166"/>
<feComposite in2="hardAlpha" operator="arithmetic" k2="-1" k3="1"/>
<feColorMatrix type="matrix" values="0 0 0 0 1 0 0 0 0 1 0 0 0 0 1 0 0 0 1 0"/>
<feBlend mode="normal" in2="shape" result="effect1_innerShadow_121_944"/>
</filter>
<filter id="filter4_i_121_944" x="1030.53" y="163.993" width="2.97266" height="74.3167" filterUnits="userSpaceOnUse" color-interpolation-filters="sRGB">
<feFlood flood-opacity="0" result="BackgroundImageFix"/>
<feBlend mode="normal" in="SourceGraphic" in2="BackgroundImageFix" result="shape"/>
<feColorMatrix in="SourceAlpha" type="matrix" values="0 0 0 0 0 0 0 0 0 0 0 0 0 0 0 0 0 0 127 0" result="hardAlpha"/>
<feOffset dx="-0.743166"/>
<feGaussianBlur stdDeviation="0.743166"/>
<feComposite in2="hardAlpha" operator="arithmetic" k2="-1" k3="1"/>
<feColorMatrix type="matrix" values="0 0 0 0 1 0 0 0 0 1 0 0 0 0 1 0 0 0 1 0"/>
<feBlend mode="normal" in2="shape" result="effect1_innerShadow_121_944"/>
</filter>
<filter id="filter5_ddddd_121_944" x="381.125" y="67.8652" width="569.845" height="933.149" filterUnits="userSpaceOnUse" color-interpolation-filters="sRGB">
<feFlood flood-opacity="0" result="BackgroundImageFix"/>
<feColorMatrix in="SourceAlpha" type="matrix" values="0 0 0 0 0 0 0 0 0 0 0 0 0 0 0 0 0 0 127 0" result="hardAlpha"/>
<feOffset/>
<feColorMatrix type="matrix" values="0 0 0 0 0 0 0 0 0 0 0 0 0 0 0 0 0 0 0.2 0"/>
<feBlend mode="normal" in2="BackgroundImageFix" result="effect1_dropShadow_121_944"/>
<feColorMatrix in="SourceAlpha" type="matrix" values="0 0 0 0 0 0 0 0 0 0 0 0 0 0 0 0 0 0 127 0" result="hardAlpha"/>
<feOffset dx="-9" dy="11"/>
<feGaussianBlur stdDeviation="16"/>
<feColorMatrix type="matrix" values="0 0 0 0 0 0 0 0 0 0 0 0 0 0 0 0 0 0 0.19 0"/>
<feBlend mode="normal" in2="effect1_dropShadow_121_944" result="effect2_dropShadow_121_944"/>
<feColorMatrix in="SourceAlpha" type="matrix" values="0 0 0 0 0 0 0 0 0 0 0 0 0 0 0 0 0 0 127 0" result="hardAlpha"/>
<feOffset dx="-35" dy="46"/>
<feGaussianBlur stdDeviation="29"/>
<feColorMatrix type="matrix" values="0 0 0 0 0 0 0 0 0 0 0 0 0 0 0 0 0 0 0.17 0"/>
<feBlend mode="normal" in2="effect2_dropShadow_121_944" result="effect3_dropShadow_121_944"/>
<feColorMatrix in="SourceAlpha" type="matrix" values="0 0 0 0 0 0 0 0 0 0 0 0 0 0 0 0 0 0 127 0" result="hardAlpha"/>
<feOffset dx="-78" dy="103"/>
<feGaussianBlur stdDeviation="39"/>
<feColorMatrix type="matrix" values="0 0 0 0 0 0 0 0 0 0 0 0 0 0 0 0 0 0 0.1 0"/>
<feBlend mode="normal" in2="effect3_dropShadow_121_944" result="effect4_dropShadow_121_944"/>
<feColorMatrix in="SourceAlpha" type="matrix" values="0 0 0 0 0 0 0 0 0 0 0 0 0 0 0 0 0 0 127 0" result="hardAlpha"/>
<feOffset dx="-139" dy="184"/>
<feGaussianBlur stdDeviation="46"/>
<feColorMatrix type="matrix" values="0 0 0 0 0 0 0 0 0 0 0 0 0 0 0 0 0 0 0.03 0"/>
<feBlend mode="normal" in2="effect4_dropShadow_121_944" result="effect5_dropShadow_121_944"/>
<feBlend mode="normal" in="SourceGraphic" in2="effect5_dropShadow_121_944" result="shape"/>
</filter>
<filter id="filter6_i_121_944" x="614.355" y="88.8652" width="311.386" height="636.149" filterUnits="userSpaceOnUse" color-interpolation-filters="sRGB">
<feFlood flood-opacity="0" result="BackgroundImageFix"/>
<feBlend mode="normal" in="SourceGraphic" in2="BackgroundImageFix" result="shape"/>
<feColorMatrix in="SourceAlpha" type="matrix" values="0 0 0 0 0 0 0 0 0 0 0 0 0 0 0 0 0 0 127 0" result="hardAlpha"/>
<feOffset/>
<feGaussianBlur stdDeviation="2.97266"/>
<feComposite in2="hardAlpha" operator="arithmetic" k2="-1" k3="1"/>
<feColorMatrix type="matrix" values="0 0 0 0 0 0 0 0 0 0 0 0 0 0 0 0 0 0 0.3 0"/>
<feBlend mode="normal" in2="shape" result="effect1_innerShadow_121_944"/>
</filter>
<filter id="filter7_i_121_944" x="612.125" y="189.936" width="2.97266" height="22.2949" filterUnits="userSpaceOnUse" color-interpolation-filters="sRGB">
<feFlood flood-opacity="0" result="BackgroundImageFix"/>
<feBlend mode="normal" in="SourceGraphic" in2="BackgroundImageFix" result="shape"/>
<feColorMatrix in="SourceAlpha" type="matrix" values="0 0 0 0 0 0 0 0 0 0 0 0 0 0 0 0 0 0 127 0" result="hardAlpha"/>
<feOffset dx="0.743166"/>
<feGaussianBlur stdDeviation="0.743166"/>
<feComposite in2="hardAlpha" operator="arithmetic" k2="-1" k3="1"/>
<feColorMatrix type="matrix" values="0 0 0 0 1 0 0 0 0 1 0 0 0 0 1 0 0 0 1 0"/>
<feBlend mode="normal" in2="shape" result="effect1_innerShadow_121_944"/>
</filter>
<filter id="filter8_i_121_944" x="612.125" y="236.012" width="2.97266" height="46.0762" filterUnits="userSpaceOnUse" color-interpolation-filters="sRGB">
<feFlood flood-opacity="0" result="BackgroundImageFix"/>
<feBlend mode="normal" in="SourceGraphic" in2="BackgroundImageFix" result="shape"/>
<feColorMatrix in="SourceAlpha" type="matrix" values="0 0 0 0 0 0 0 0 0 0 0 0 0 0 0 0 0 0 127 0" result="hardAlpha"/>
<feOffset dx="0.743166"/>
<feGaussianBlur stdDeviation="0.743166"/>
<feComposite in2="hardAlpha" operator="arithmetic" k2="-1" k3="1"/>
<feColorMatrix type="matrix" values="0 0 0 0 1 0 0 0 0 1 0 0 0 0 1 0 0 0 1 0"/>
<feBlend mode="normal" in2="shape" result="effect1_innerShadow_121_944"/>
</filter>
<filter id="filter9_i_121_944" x="612.125" y="295.465" width="2.97266" height="46.0762" filterUnits="userSpaceOnUse" color-interpolation-filters="sRGB">
<feFlood flood-opacity="0" result="BackgroundImageFix"/>
<feBlend mode="normal" in="SourceGraphic" in2="BackgroundImageFix" result="shape"/>
<feColorMatrix in="SourceAlpha" type="matrix" values="0 0 0 0 0 0 0 0 0 0 0 0 0 0 0 0 0 0 127 0" result="hardAlpha"/>
<feOffset dx="0.743166"/>
<feGaussianBlur stdDeviation="0.743166"/>
<feComposite in2="hardAlpha" operator="arithmetic" k2="-1" k3="1"/>
<feColorMatrix type="matrix" values="0 0 0 0 1 0 0 0 0 1 0 0 0 0 1 0 0 0 1 0"/>
<feBlend mode="normal" in2="shape" result="effect1_innerShadow_121_944"/>
</filter>
<filter id="filter10_i_121_944" x="924.998" y="252.362" width="2.97266" height="74.3167" filterUnits="userSpaceOnUse" color-interpolation-filters="sRGB">
<feFlood flood-opacity="0" result="BackgroundImageFix"/>
<feBlend mode="normal" in="SourceGraphic" in2="BackgroundImageFix" result="shape"/>
<feColorMatrix in="SourceAlpha" type="matrix" values="0 0 0 0 0 0 0 0 0 0 0 0 0 0 0 0 0 0 127 0" result="hardAlpha"/>
<feOffset dx="-0.743166"/>
<feGaussianBlur stdDeviation="0.743166"/>
<feComposite in2="hardAlpha" operator="arithmetic" k2="-1" k3="1"/>
<feColorMatrix type="matrix" values="0 0 0 0 1 0 0 0 0 1 0 0 0 0 1 0 0 0 1 0"/>
<feBlend mode="normal" in2="shape" result="effect1_innerShadow_121_944"/>
</filter>
<linearGradient id="paint0_linear_121_944" x1="517" y1="0.496094" x2="517" y2="636.646" gradientUnits="userSpaceOnUse">
<stop stop-color="white" stop-opacity="0.6"/>
<stop offset="1" stop-color="white" stop-opacity="0.3"/>
</linearGradient>
<linearGradient id="paint1_linear_121_944" x1="770.048" y1="88.8652" x2="770.048" y2="725.015" gradientUnits="userSpaceOnUse">
<stop stop-color="white" stop-opacity="0.6"/>
<stop offset="1" stop-color="white" stop-opacity="0.3"/>
</linearGradient>
</defs>
</svg>
